HIERARCHY
ROOT hip
{
	OFFSET 0.000000 0.000000 0.000000 
	CHANNELS 6 Xposition Yposition Zposition Xrotation Zrotation Yrotation
	JOINT abdomen
	{
		OFFSET 0.000000 3.402643 0.000000 
		CHANNELS 3 Xrotation Zrotation Yrotation
		JOINT chest
		{
			OFFSET 0.000000 8.438565 -0.680529 
			CHANNELS 3 Xrotation Zrotation Yrotation
			JOINT neck
			{
				OFFSET 0.000000 10.207942 -0.272212 
				CHANNELS 3 Xrotation Zrotation Yrotation
				JOINT head
				{
					OFFSET 0.000000 3.130431 0.000000 
					CHANNELS 3 Xrotation Zrotation Yrotation
					End Site
					{
						OFFSET 0.000000 3.130435 0.000000 
					}
				}
			}
			JOINT lCollar
			{
				OFFSET 3.470700 6.669187 -0.816635 
				CHANNELS 3 Yrotation Zrotation Xrotation
				JOINT lShldr
				{
					OFFSET 3.198488 0.000000 0.000000 
					CHANNELS 3 Zrotation Yrotation Xrotation
					JOINT lForeArm
					{
						OFFSET 10.139888 0.000000 0.000000 
						CHANNELS 3 Yrotation Zrotation Xrotation
						JOINT lHand
						{
							OFFSET 8.370511 0.000000 0.000000 
							CHANNELS 3 Zrotation Yrotation Xrotation
							End Site
							{
								OFFSET 4.083176 0.000000 0.000000 
							}
						}
					}
				}
			}
			JOINT rCollar
			{
				OFFSET -3.470700 6.669187 -0.816635 
				CHANNELS 3 Yrotation Zrotation Xrotation
				JOINT rShldr
				{
					OFFSET -3.198488 0.000000 0.000000 
					CHANNELS 3 Zrotation Yrotation Xrotation
					JOINT rForeArm
					{
						OFFSET -10.139888 0.000000 0.000000 
						CHANNELS 3 Yrotation Zrotation Xrotation
						JOINT rHand
						{
							OFFSET -8.370511 0.000000 0.000000 
							CHANNELS 3 Zrotation Yrotation Xrotation
							End Site
							{
								OFFSET -4.083176 0.000000 0.000000 
							}
						}
					}
				}
			}
		}
	}
	JOINT lThigh
	{
		OFFSET 5.308129 -1.633274 1.361059 
		CHANNELS 3 Xrotation Zrotation Yrotation
		JOINT lShin
		{
			OFFSET -2.041588 -20.007561 0.000000 
			CHANNELS 3 Xrotation Zrotation Yrotation
			JOINT lFoot
			{
				OFFSET 0.000000 -19.190928 -1.224953 
				CHANNELS 3 Xrotation Yrotation Zrotation
				End Site
				{
					OFFSET 0.000000 -2.449906 4.627600 
				}
			}
		}
	}
	JOINT rThigh
	{
		OFFSET -5.308129 -1.633274 1.361059 
		CHANNELS 3 Xrotation Zrotation Yrotation
		JOINT rShin
		{
			OFFSET 2.041588 -20.007561 0.000000 
			CHANNELS 3 Xrotation Zrotation Yrotation
			JOINT rFoot
			{
				OFFSET 0.000000 -19.190928 -1.224953 
				CHANNELS 3 Xrotation Yrotation Zrotation
				End Site
				{
					OFFSET 0.000000 -2.449906 4.627600 
				}
			}
		}
	}
}
MOTION
Frames: 8
Frame Time: 0.016667
7.293313 42.469128 84.528946 2.844890 2.672490 0.972912 -13.633600 0.939936 0.380547 23.877100 -0.506960 0.449018 25.548201 -5.867850 1.833490 18.163099 2.423740 2.109460 2.000000 -2.000000 0.000000 -1.086890 -57.246799 154.388000 41.631302 -0.317036 0.090883 0.065261 -0.058024 -158.123001 -2.000000 2.000000 0.000000 -1.418630 64.943497 144.203995 -40.058998 0.319489 0.087991 -0.062017 0.048846 -154.645996 -18.093946 1.041813 -3.030434 24.585865 2.910065 1.854146 -8.807449 7.101857 2.103817 8.869464 -2.948354 -0.148319 17.339340 -8.135398 -1.026461 -23.760386 -6.325099 -0.753456 
7.594738 42.548866 84.988853 2.883950 2.652890 -0.032110 -13.680300 0.838928 0.773816 23.662300 -0.633833 0.619802 25.460100 -5.977440 1.880590 18.064600 2.358670 2.137580 2.000000 -2.000000 0.000000 -1.409620 -57.079102 155.179001 41.914501 -0.316586 0.091387 0.065710 -0.059170 -158.561996 -2.000000 2.000000 0.000000 -0.273626 64.775002 145.453003 -39.961300 0.319639 0.087812 -0.062210 0.049445 -154.871002 -17.429504 1.036097 -2.421504 24.604691 2.917586 1.855431 -9.614750 7.026226 2.212098 8.615994 -3.361153 0.701071 18.211308 -7.841453 -1.062185 -22.920462 -6.767323 -0.966999 
7.889941 42.663452 85.480896 2.884470 2.867460 -0.900194 -13.541800 0.711843 1.015040 23.750099 -0.546026 0.711631 25.467800 -6.048830 1.950510 18.103901 2.377130 2.163470 2.000000 -2.000000 0.000000 -1.456980 -56.775902 155.382996 42.090302 -0.316305 0.091698 0.065781 -0.059347 -158.630997 -2.000000 2.000000 0.000000 0.050993 64.812897 146.087006 -39.902802 0.319729 0.087705 -0.062059 0.048977 -154.695007 -16.440617 0.719772 -1.583710 24.219942 2.915599 1.821353 -10.155273 6.940079 2.284153 8.440679 -4.153994 1.236995 19.302530 -7.498714 -1.112419 -22.487555 -6.151333 -0.888786 
8.157475 42.790382 85.938118 3.031380 2.954850 -1.776890 -13.557700 0.602119 1.440200 23.652500 -0.624088 0.893876 25.322100 -5.892540 2.042970 18.006901 2.435200 2.212630 2.000000 -2.000000 0.000000 -1.292950 -56.960400 155.862000 42.080502 -0.316321 0.091681 0.065903 -0.059652 -158.748001 -2.000000 2.000000 0.000000 0.735133 64.655296 146.761002 -39.424198 0.320458 0.086826 -0.061533 0.047307 -154.070007 -15.696449 0.528402 -0.967172 23.758471 2.902849 1.805251 -10.509628 7.211872 2.410919 8.024175 -4.796770 1.521893 20.294422 -7.127726 -1.168654 -21.505648 -5.843820 -0.897016 
8.429063 42.912426 86.371407 3.363470 2.827160 -2.480120 -13.555400 0.531699 1.666560 23.681900 -0.692328 0.987475 25.038500 -6.015770 2.096260 17.869301 2.380040 2.231870 2.000000 -2.000000 0.000000 -1.369640 -56.598099 156.291000 42.412498 -0.315788 0.092267 0.065903 -0.059652 -158.748001 -2.000000 2.000000 0.000000 1.116840 64.556396 147.356003 -39.414501 0.320472 0.086808 -0.061429 0.046967 -153.942993 -15.183193 0.454234 -0.617372 23.275698 2.896545 1.771867 -10.847977 7.444948 2.506964 7.334901 -5.374469 1.357525 21.403580 -6.671393 -1.244028 -20.650333 -5.029234 -0.835524 
8.670725 43.041538 86.784920 3.764040 2.728490 -2.818350 -13.720600 0.457455 1.744910 23.466999 -0.702218 1.009110 25.018101 -6.268170 2.045690 17.877600 2.256670 2.211650 2.000000 -2.000000 0.000000 -1.389820 -56.577599 156.729996 42.402802 -0.315804 0.092250 0.065903 -0.059652 -158.748001 -2.000000 2.000000 0.000000 2.045830 64.417900 148.235001 -39.287498 0.320664 0.086574 -0.061104 0.045894 -153.542999 -14.890985 0.288905 -0.577591 22.856083 2.864559 1.761863 -11.217309 7.669987 2.647588 6.666778 -5.777057 1.351317 22.300007 -6.220868 -1.289182 -19.432920 -4.761107 -0.960807 
8.891008 43.163582 87.200569 4.037210 2.552250 -3.052090 -13.876500 0.407547 1.777730 23.213100 -0.663349 1.014030 24.602501 -6.348630 2.167920 17.613501 2.240780 2.255260 2.000000 -2.000000 0.000000 -1.565620 -56.420200 157.296005 42.490700 -0.315662 0.092405 0.066313 -0.060666 -159.139008 -2.000000 2.000000 0.000000 2.662820 64.337997 149.113998 -39.268002 0.320694 0.086538 -0.061199 0.046209 -153.660004 -14.266107 0.211831 -0.714006 22.060516 2.836280 1.718852 -11.199563 8.006852 2.726826 5.969262 -6.155545 0.876890 23.560616 -5.808045 -1.358093 -18.012793 -4.890345 -1.176910 
9.082309 43.270191 87.592178 4.174260 2.610250 -3.158920 -13.710900 0.323830 1.747510 23.339899 -0.438935 0.984446 24.628000 -6.637270 2.204380 17.739599 2.153930 2.268680 2.000000 -2.000000 0.000000 -1.016710 -56.206299 156.847000 42.383202 -0.315835 0.092216 0.065964 -0.059805 -158.806000 -2.000000 2.000000 0.000000 2.574090 64.358299 148.751999 -39.297298 0.320650 0.086592 -0.060910 0.045239 -153.298996 -13.740507 -0.085564 -0.734035 21.588312 2.821454 1.684096 -11.454467 8.048488 2.779513 5.277712 -6.545483 1.157473 25.203365 -5.348282 -1.508831 -16.990622 -5.020699 -1.419550 
